<?xml version="1.0" encoding="UTF-8" standalone="no"?>
<!-- Uploaded to: SVG Repo, www.svgrepo.com, Generator: SVG Repo Mixer Tools -->

<svg
   fill="#000000"
   width="100"
   height="100"
   viewBox="0 0 64 64"
   version="1.1"
   id="svg7"
   xmlns="http://www.w3.org/2000/svg"
   xmlns:svg="http://www.w3.org/2000/svg">
  <defs
     id="defs7" />
  <g
     data-name="12 site"
     id="_12_site">
    <path
       d="m 17.5,9.08 a 2,2 0 1 1 -2,-2.03 2.021,2.021 0 0 1 2,2.03 z"
       id="path1" />
    <path
       d="m 11.5,9.08 a 2,2 0 1 1 -2,-2.03 2.021,2.021 0 0 1 2,2.03 z"
       id="path2" />
    <path
       d="m 23.5,9.08 a 2,2 0 1 1 -2,-2.03 2.021,2.021 0 0 1 2,2.03 z"
       id="path3" />
    <path
       d="m 58.5,3.5 h -53 a 2.006,2.006 0 0 0 -2,2 v 53 a 2.006,2.006 0 0 0 2,2 h 53 a 2.006,2.006 0 0 0 2,-2 v -53 a 2.006,2.006 0 0 0 -2,-2 z m 0,55 H 5.5 V 14.67 h 53 z m 0,-45.83 H 5.5 V 5.5 h 53 z"
       id="path4" />
    <path
       d="m 56.21,9.91 a 1,1 0 0 1 -0.01,1.41 0.96,0.96 0 0 1 -0.7,0.29 0.976,0.976 0 0 1 -0.71,-0.3 L 54,10.51 53.21,11.31 A 0.976,0.976 0 0 1 52.5,11.61 0.96,0.96 0 0 1 51.8,11.32 1,1 0 0 1 51.79,9.91 L 52.6,9.08 51.79,8.26 A 1.008,1.008 0 0 1 51.8,6.84 1,1 0 0 1 53.21,6.85 L 54,7.66 54.79,6.85 A 1,1 0 0 1 56.2,6.84 1.008,1.008 0 0 1 56.21,8.26 L 55.4,9.08 Z"
       id="path5" />
    <path
       d="m 49.5,9.08 a 1,1 0 0 1 -1,1 h -4 a 1,1 0 0 1 0,-2 h 4 a 1,1 0 0 1 1,1 z"
       id="path6" />
    <path
       d="M 20.15,42.89 23.78,40.8 H 41.45 A 2.889,2.889 0 0 0 44,39.24 l 5.67,-10.71 a 3.089,3.089 0 0 0 -0.22,-3.22 l -0.72,-1.02 a 2.906,2.906 0 0 0 -2.34,-1.22 h -0.01 l -23.57,0.06 -0.15,-1.54 a 3.084,3.084 0 0 0 -3.03,-2.81 h -5.65 a 1,1 0 0 0 0,2 h 5.65 a 1.09,1.09 0 0 1 1.04,1.02 l 1.78,17.46 -3.37,1.95 a 3.158,3.158 0 0 0 -1.34,2.6 v 0.28 a 3.113,3.113 0 0 0 2.83,3.13 4.653,4.653 0 0 0 -0.78,2.59 4.408,4.408 0 1 0 8.81,0 4.684,4.684 0 0 0 -0.77,-2.57 h 9.07 a 4.6,4.6 0 0 0 -0.77,2.57 4.408,4.408 0 1 0 8.81,0 4.684,4.684 0 0 0 -0.77,-2.57 h 1.81 a 1,1 0 0 0 0,-2 H 20.79 a 1.107,1.107 0 0 1 -1.05,-1.15 v -0.28 a 1.211,1.211 0 0 1 0.41,-0.92 z M 42.24,38.3 a 0.915,0.915 0 0 1 -0.79,0.5 H 24.41 L 23.38,28.66 47.34,28.65 Z m 4.14,-13.23 h 0.01 a 0.87,0.87 0 0 1 0.71,0.38 l 0.73,1.02 c 0.03,0.05 0.06,0.11 0.09,0.17 l -24.75,0.02 -0.15,-1.53 z m -5.85,22.17 a 2.581,2.581 0 1 1 -2.4,2.57 2.494,2.494 0 0 1 2.4,-2.57 z m -16.34,0 a 2.581,2.581 0 1 1 -2.4,2.57 2.494,2.494 0 0 1 2.4,-2.57 z"
       id="path7" />
  </g>
</svg>
