<?xml version="1.0" encoding="UTF-8" standalone="no"?>
<!-- Uploaded to: SVG Repo, www.svgrepo.com, Generator: SVG Repo Mixer Tools -->

<svg
   fill="#000000"
   version="1.1"
   id="Capa_1"
   width="100"
   height="100"
   viewBox="0 0 400.001 400"
   xml:space="preserve"
   xmlns="http://www.w3.org/2000/svg"
   xmlns:svg="http://www.w3.org/2000/svg"><defs
   id="defs2" />
<g
   id="g2">
	<g
   id="g1">
		<path
   d="M 373.509,51.66 H 352.76 V 33.114 c 0,-7.312 -5.932,-13.246 -13.246,-13.246 H 60.485 c -7.314,0 -13.246,5.935 -13.246,13.246 v 68.875 c 0,7.316 5.932,13.245 13.246,13.245 h 279.029 c 7.314,0 13.246,-5.929 13.246,-13.245 V 78.146 h 20.749 V 321.857 H 352.76 v -23.842 c 0,-7.316 -5.932,-13.246 -13.246,-13.246 H 60.485 c -7.314,0 -13.246,5.93 -13.246,13.246 v 23.842 H 26.491 V 213.247 H 47.24 v 21.19 c 0,7.313 5.932,13.244 13.246,13.244 h 279.029 c 7.314,0 13.246,-5.931 13.246,-13.244 v -68.872 c 0,-7.315 -5.932,-13.245 -13.246,-13.245 H 60.485 c -7.314,0 -13.246,5.93 -13.246,13.245 v 21.19 H 26.491 C 11.885,186.756 0,198.64 0,213.246 v 108.609 c 0,14.606 11.884,26.486 26.491,26.486 H 47.24 v 18.546 c 0,7.313 5.932,13.246 13.246,13.246 h 279.029 c 7.314,0 13.246,-5.935 13.246,-13.246 v -18.546 h 20.749 c 14.606,0 26.491,-11.88 26.491,-26.486 V 78.148 C 400,63.54 388.115,51.66 373.509,51.66 Z M 109.052,88.304 c -11.462,0 -20.751,-9.293 -20.751,-20.75 0,-11.462 9.29,-20.751 20.751,-20.751 11.459,0 20.749,9.289 20.749,20.751 0,11.457 -9.29,20.75 -20.749,20.75 z m 110.815,-7.506 c 0,5.483 -4.448,9.931 -9.937,9.931 -5.485,0 -9.933,-4.447 -9.933,-9.931 V 54.31 c 0,-5.488 4.446,-9.936 9.933,-9.936 5.487,0 9.937,4.447 9.937,9.936 z m 44.149,0 c 0,5.483 -4.445,9.931 -9.933,9.931 -5.485,0 -9.933,-4.447 -9.933,-9.931 V 54.31 c 0,-5.488 4.446,-9.936 9.933,-9.936 5.487,0 9.933,4.447 9.933,9.936 z m 44.151,0 c 0,5.483 -4.446,9.931 -9.935,9.931 -5.486,0 -9.934,-4.447 -9.934,-9.931 V 54.31 c 0,-5.488 4.446,-9.936 9.934,-9.936 5.486,0 9.935,4.447 9.935,9.936 z M 288.3,186.759 c 0,-5.486 4.446,-9.936 9.934,-9.936 5.486,0 9.935,4.449 9.935,9.936 v 26.488 c 0,5.486 -4.446,9.937 -9.935,9.937 -5.486,0 -9.934,-4.449 -9.934,-9.937 z m -44.15,0 c 0,-5.486 4.446,-9.936 9.933,-9.936 5.487,0 9.933,4.449 9.933,9.936 v 26.488 c 0,5.486 -4.445,9.937 -9.933,9.937 -5.485,0 -9.933,-4.449 -9.933,-9.937 z m -44.15,0 c 0,-5.486 4.447,-9.936 9.934,-9.936 5.485,0 9.936,4.449 9.936,9.936 v 26.488 c 0,5.486 -4.448,9.937 -9.936,9.937 -5.486,0 -9.934,-4.45 -9.934,-9.937 z m -90.948,-7.509 c 11.459,0 20.749,9.29 20.749,20.752 0,11.462 -9.29,20.752 -20.749,20.752 -11.462,0 -20.751,-9.29 -20.751,-20.752 0,-11.462 9.289,-20.752 20.751,-20.752 z m 0,173.953 c -11.462,0 -20.751,-9.289 -20.751,-20.751 0,-11.457 9.29,-20.75 20.751,-20.75 11.459,0 20.749,9.293 20.749,20.75 0,11.462 -9.29,20.751 -20.749,20.751 z m 110.815,-7.507 c 0,5.487 -4.448,9.936 -9.937,9.936 -5.485,0 -9.933,-4.446 -9.933,-9.936 v -26.488 c 0,-5.481 4.446,-9.93 9.933,-9.93 5.487,0 9.937,4.445 9.937,9.93 z m 44.149,0 c 0,5.487 -4.445,9.936 -9.933,9.936 -5.485,0 -9.933,-4.446 -9.933,-9.936 v -26.488 c 0,-5.481 4.446,-9.93 9.933,-9.93 5.487,0 9.933,4.445 9.933,9.93 z m 44.151,0 c 0,5.487 -4.446,9.936 -9.935,9.936 -5.486,0 -9.934,-4.446 -9.934,-9.936 v -26.488 c 0,-5.481 4.446,-9.93 9.934,-9.93 5.486,0 9.935,4.445 9.935,9.93 z"
   id="path1" />
	</g>
</g>
</svg>
