<?xml version="1.0" encoding="UTF-8" standalone="no"?>
<!-- Uploaded to: SVG Repo, www.svgrepo.com, Generator: SVG Repo Mixer Tools -->

<svg
   width="100"
   height="100"
   viewBox="0 0 20 20"
   version="1.1"
   id="svg1"
   xmlns="http://www.w3.org/2000/svg"
   xmlns:svg="http://www.w3.org/2000/svg">
  <title
     id="title1">wordpress [#139]</title>
  <desc
     id="desc1">Created with Sketch.</desc>
  <defs
     id="defs1" />
  <g
     id="Page-1"
     stroke="none"
     stroke-width="1"
     fill="none"
     fill-rule="evenodd">
    <g
       id="Dribbble-Light-Preview"
       transform="translate(-260,-7559)"
       fill="#000000">
      <g
         id="icons"
         transform="translate(56,160)">
        <path
           d="m 222.775,7404.202 c 0.043,0.319 0.067,0.66 0.067,1.028 0,1.758 -0.163,1.857 -3.815,12.414 C 222,7415.91 224,7412.689 224,7409 c 0,-1.739 -0.444,-3.374 -1.225,-4.798 z m -8.599,5.673 -3.001,8.718 c 2.025,0.596 4.171,0.535 6.146,-0.159 -0.027,-0.043 -0.051,-0.089 -0.071,-0.138 z m 6.575,-1.38 c 0,-1.236 -0.444,-2.092 -0.825,-2.758 -0.506,-0.824 -0.982,-1.521 -0.982,-2.345 0,-0.919 0.698,-1.775 1.68,-1.775 0.044,0 0.086,0.01 0.129,0.01 -1.779,-1.63 -4.149,-2.625 -6.753,-2.625 -3.493,0 -6.567,1.792 -8.355,4.507 0.637,0.02 1.492,0.028 3.309,-0.114 0.539,-0.032 0.602,0.76 0.064,0.823 0,0 -0.542,0.064 -1.145,0.096 l 3.642,10.832 2.188,-6.564 -1.558,-4.269 c -0.538,-0.031 -1.048,-0.095 -1.048,-0.095 -0.539,-0.032 -0.476,-0.856 0.063,-0.824 2.067,0.159 3.125,0.171 5.299,0 0.539,-0.032 0.603,0.76 0.064,0.824 0,0 -0.543,0.064 -1.145,0.095 l 3.614,10.75 c 1.427,-4.768 1.759,-5.566 1.759,-6.566 z M 204,7409 c 0,3.958 2.3,7.379 5.636,9 l -4.77,-13.07 c -0.555,1.244 -0.866,2.62 -0.866,4.07 z"
           id="wordpress-[#139]" />
      </g>
    </g>
  </g>
</svg>
